<svg width="373" height="200" viewBox="0 0 373 200" fill="none" xmlns="http://www.w3.org/2000/svg">
<rect x="11" y="70" width="77" height="130" rx="30" fill="url(#paint0_linear_47_31)"/>
<rect x="201" y="70" width="77" height="130" rx="30" fill="url(#paint1_linear_47_31)"/>
<rect x="296" y="70" width="77" height="130" rx="30" fill="url(#paint2_linear_47_31)"/>
<rect x="106" y="70" width="77" height="130" rx="30" fill="url(#paint3_linear_47_31)"/>
<g filter="url(#filter0_i_47_31)">
<circle cx="49" cy="108" r="27" fill="#EF8A17" fill-opacity="0.95"/>
</g>
<g filter="url(#filter1_i_47_31)">
<circle cx="335" cy="108" r="27" fill="#EF8A17" fill-opacity="0.95"/>
</g>
<g filter="url(#filter2_i_47_31)">
<circle cx="240" cy="108" r="27" fill="#EF8A17" fill-opacity="0.95"/>
</g>
<g filter="url(#filter3_i_47_31)">
<circle cx="145" cy="108" r="27" fill="#EF8A17" fill-opacity="0.95"/>
</g>
<rect width="283" height="43" rx="8" fill="#653162"/>
<path d="M12.2528 29H10.5824L19.8295 11.5455H21.5341L24.9858 29H23.3153L20.4091 13.6165H20.2983L12.2528 29ZM14.571 22.3097H23.2301L22.9915 23.7415H14.3324L14.571 22.3097ZM34.1797 15.9091L33.9666 17.2301H27.7109L27.9325 15.9091H34.1797ZM30.3956 12.7727H31.9212L29.7905 25.5824C29.6996 26.1278 29.7223 26.5568 29.8587 26.8693C29.995 27.1761 30.2053 27.3949 30.4893 27.5256C30.7734 27.6506 31.0859 27.7131 31.4268 27.7131C31.6257 27.7131 31.7962 27.7017 31.9382 27.679C32.0859 27.6506 32.2166 27.6222 32.3303 27.5938L32.4411 28.9659C32.2763 29.0227 32.0803 29.0739 31.853 29.1193C31.6257 29.1705 31.353 29.196 31.0348 29.196C30.478 29.196 29.9638 29.0739 29.4922 28.8295C29.0206 28.5852 28.6626 28.2216 28.4183 27.7386C28.174 27.2557 28.1087 26.6562 28.2223 25.9403L30.3956 12.7727ZM35.4432 29L37.625 15.9091H39.0994L38.7585 17.9205H38.8693C39.233 17.2614 39.7756 16.7301 40.4972 16.3267C41.2244 15.9176 42 15.7131 42.8239 15.7131C42.9489 15.7131 43.0881 15.7159 43.2415 15.7216C43.3949 15.7216 43.5227 15.7273 43.625 15.7386L43.3608 17.2812C43.2926 17.2699 43.1733 17.2528 43.0028 17.2301C42.8381 17.2074 42.6534 17.196 42.4489 17.196C41.767 17.196 41.1364 17.3409 40.5568 17.6307C39.983 17.9148 39.5 18.3097 39.108 18.8153C38.7216 19.321 38.4716 19.8977 38.358 20.5455L36.9602 29H35.4432ZM44.0384 29L46.2202 15.9091H47.7457L45.5639 29H44.0384ZM47.5327 13.6335C47.2145 13.6335 46.9446 13.5256 46.723 13.3097C46.5071 13.0937 46.402 12.8324 46.4077 12.5256C46.419 12.2358 46.5355 11.9858 46.7571 11.7756C46.9844 11.5597 47.2514 11.4517 47.5582 11.4517C47.8764 11.4517 48.1463 11.5625 48.3679 11.7841C48.5895 12 48.6946 12.2614 48.6832 12.5682C48.6776 12.858 48.5611 13.108 48.3338 13.3182C48.1065 13.5284 47.8395 13.6335 47.5327 13.6335ZM49.8913 29L52.7891 11.5455H54.3146L53.1896 18.4062H53.326C53.5589 18.0142 53.8686 17.6108 54.255 17.196C54.647 16.7812 55.13 16.4347 55.7038 16.1562C56.2777 15.8722 56.9652 15.7301 57.7663 15.7301C58.8402 15.7301 59.7351 16.0142 60.451 16.5824C61.1726 17.1449 61.6754 17.9347 61.9595 18.9517C62.2436 19.9631 62.2749 21.142 62.0533 22.4886C61.826 23.8409 61.4027 25.0256 60.7834 26.0426C60.1641 27.0597 59.4027 27.8523 58.4993 28.4205C57.5959 28.9886 56.6101 29.2727 55.5419 29.2727C54.7464 29.2727 54.1044 29.1307 53.6158 28.8466C53.1328 28.5625 52.7635 28.2131 52.5078 27.7983C52.2578 27.3778 52.076 26.9687 51.9624 26.571H51.7749L51.3658 29H49.8913ZM52.4822 22.4631C52.3118 23.5199 52.3118 24.4574 52.4822 25.2756C52.6584 26.0881 53.0021 26.7273 53.5135 27.1932C54.0305 27.6534 54.7124 27.8835 55.5589 27.8835C56.4283 27.8835 57.2038 27.6449 57.8857 27.1676C58.5732 26.6847 59.1413 26.0341 59.5902 25.2159C60.0447 24.3977 60.3572 23.4801 60.5277 22.4631C60.6925 21.4574 60.6896 20.5511 60.5192 19.7443C60.3487 18.9375 60.005 18.2983 59.4879 17.8267C58.9709 17.3494 58.2749 17.1108 57.3999 17.1108C56.5476 17.1108 55.7805 17.3409 55.0987 17.8011C54.4226 18.2557 53.8601 18.8864 53.4112 19.6932C52.9624 20.4943 52.6527 21.4176 52.4822 22.4631ZM73.4396 23.9972L74.7947 15.9091H76.3118L74.13 29H72.6129L72.9709 26.8267H72.8601C72.451 27.4972 71.8714 28.0568 71.1214 28.5057C70.3771 28.9489 69.5249 29.1705 68.5646 29.1705C67.7294 29.1705 67.0163 28.9886 66.4254 28.625C65.8402 28.2557 65.4226 27.7159 65.1726 27.0057C64.9226 26.2955 64.8828 25.4233 65.0533 24.3892L66.4766 15.9091H67.9936L66.5959 24.2955C66.4311 25.3182 66.5959 26.142 67.0902 26.767C67.5902 27.3864 68.3118 27.696 69.255 27.696C69.8459 27.696 70.4368 27.554 71.0277 27.2699C71.6243 26.9858 72.1413 26.571 72.5788 26.0256C73.022 25.4744 73.3089 24.7983 73.4396 23.9972ZM85.4844 15.9091L85.2713 17.2301H79.0156L79.2372 15.9091H85.4844ZM81.7003 12.7727H83.2259L81.0952 25.5824C81.0043 26.1278 81.027 26.5568 81.1634 26.8693C81.2997 27.1761 81.5099 27.3949 81.794 27.5256C82.0781 27.6506 82.3906 27.7131 82.7315 27.7131C82.9304 27.7131 83.1009 27.7017 83.2429 27.679C83.3906 27.6506 83.5213 27.6222 83.6349 27.5938L83.7457 28.9659C83.581 29.0227 83.3849 29.0739 83.1577 29.1193C82.9304 29.1705 82.6577 29.196 82.3395 29.196C81.7827 29.196 81.2685 29.0739 80.7969 28.8295C80.3253 28.5852 79.9673 28.2216 79.723 27.7386C79.4787 27.2557 79.4134 26.6562 79.527 25.9403L81.7003 12.7727ZM91.8658 29.2727C90.6442 29.2727 89.6357 28.9886 88.8402 28.4205C88.0447 27.8466 87.4879 27.054 87.1697 26.0426C86.8516 25.0256 86.8033 23.8551 87.0249 22.5312C87.2464 21.2131 87.6839 20.0426 88.3374 19.0199C88.9908 17.9915 89.7976 17.1875 90.7578 16.608C91.718 16.0227 92.7607 15.7301 93.8857 15.7301C94.5959 15.7301 95.2607 15.8608 95.88 16.1222C96.4993 16.3778 97.0249 16.7727 97.4567 17.3068C97.8942 17.8352 98.1982 18.5028 98.3686 19.3097C98.5391 20.1108 98.5334 21.0597 98.3516 22.1562L98.2322 22.9062H88.005L88.218 21.5682H96.9027C97.0447 20.7273 97.005 19.9716 96.7834 19.3011C96.5618 18.6307 96.1839 18.0994 95.6499 17.7074C95.1214 17.3097 94.4652 17.1108 93.6811 17.1108C92.88 17.1108 92.1214 17.3352 91.4055 17.7841C90.6953 18.233 90.093 18.8182 89.5987 19.5398C89.1101 20.2557 88.7947 21.0199 88.6527 21.8324L88.4822 22.8381C88.3004 23.946 88.3232 24.875 88.5504 25.625C88.7777 26.3693 89.1896 26.9318 89.7862 27.3125C90.3828 27.6932 91.147 27.8835 92.0788 27.8835C92.7038 27.8835 93.2692 27.7869 93.7749 27.5938C94.2805 27.4006 94.7209 27.142 95.0959 26.8182C95.4709 26.4886 95.772 26.1278 95.9993 25.7358L97.3544 26.2045C97.0646 26.7557 96.6555 27.2642 96.1271 27.7301C95.6044 28.196 94.9822 28.571 94.2607 28.8551C93.5447 29.1335 92.7464 29.2727 91.8658 29.2727ZM111.053 18.7812L109.595 19.1562C109.521 18.7642 109.385 18.4119 109.186 18.0994C108.993 17.7812 108.712 17.5312 108.342 17.3494C107.979 17.1619 107.501 17.0682 106.911 17.0682C106.024 17.0682 105.26 17.2841 104.618 17.7159C103.976 18.142 103.601 18.6875 103.493 19.3523C103.402 19.9091 103.518 20.3608 103.842 20.7074C104.172 21.054 104.723 21.3267 105.496 21.5256L107.405 22.0114C108.462 22.2841 109.214 22.7102 109.663 23.2898C110.118 23.8693 110.274 24.6023 110.132 25.4886C110.007 26.2273 109.692 26.8807 109.186 27.4489C108.686 28.017 108.044 28.4631 107.26 28.7869C106.482 29.1108 105.612 29.2727 104.652 29.2727C103.362 29.2727 102.348 28.983 101.609 28.4034C100.876 27.8239 100.484 26.9886 100.433 25.8977L101.959 25.5568C102.004 26.3295 102.268 26.9148 102.751 27.3125C103.24 27.7102 103.928 27.9091 104.814 27.9091C105.825 27.9091 106.675 27.679 107.362 27.2188C108.05 26.7585 108.445 26.1903 108.547 25.5142C108.643 24.9801 108.544 24.5369 108.249 24.1847C107.959 23.8324 107.464 23.571 106.766 23.4006L104.729 22.8892C103.632 22.6108 102.857 22.1761 102.402 21.5852C101.953 20.9886 101.803 20.2528 101.95 19.3778C102.07 18.6562 102.371 18.0227 102.854 17.4773C103.337 16.9318 103.947 16.5057 104.686 16.1989C105.425 15.8864 106.232 15.7301 107.107 15.7301C108.311 15.7301 109.229 16.0028 109.859 16.5483C110.49 17.0881 110.888 17.8324 111.053 18.7812ZM114.238 29.1278C113.897 29.1278 113.61 29.0085 113.377 28.7699C113.15 28.5312 113.036 28.2415 113.036 27.9006C113.036 27.5597 113.161 27.2727 113.411 27.0398C113.661 26.8068 113.954 26.6903 114.289 26.6903C114.624 26.6903 114.911 26.8097 115.15 27.0483C115.388 27.2869 115.502 27.571 115.491 27.9006C115.485 28.1278 115.423 28.3352 115.303 28.5227C115.19 28.7045 115.039 28.8523 114.852 28.9659C114.67 29.0739 114.465 29.1278 114.238 29.1278Z" fill="black" fill-opacity="0.8"/>
<defs>
<filter id="filter0_i_47_31" x="22" y="81" width="54" height="58" filterUnits="userSpaceOnUse" color-interpolation-filters="sRGB">
<feFlood flood-opacity="0" result="BackgroundImageFix"/>
<feBlend mode="normal" in="SourceGraphic" in2="BackgroundImageFix" result="shape"/>
<feColorMatrix in="SourceAlpha" type="matrix" values="0 0 0 0 0 0 0 0 0 0 0 0 0 0 0 0 0 0 127 0" result="hardAlpha"/>
<feOffset dy="4"/>
<feGaussianBlur stdDeviation="2"/>
<feComposite in2="hardAlpha" operator="arithmetic" k2="-1" k3="1"/>
<feColorMatrix type="matrix" values="0 0 0 0 0 0 0 0 0 0 0 0 0 0 0 0 0 0 0.25 0"/>
<feBlend mode="normal" in2="shape" result="effect1_innerShadow_47_31"/>
</filter>
<filter id="filter1_i_47_31" x="308" y="81" width="54" height="58" filterUnits="userSpaceOnUse" color-interpolation-filters="sRGB">
<feFlood flood-opacity="0" result="BackgroundImageFix"/>
<feBlend mode="normal" in="SourceGraphic" in2="BackgroundImageFix" result="shape"/>
<feColorMatrix in="SourceAlpha" type="matrix" values="0 0 0 0 0 0 0 0 0 0 0 0 0 0 0 0 0 0 127 0" result="hardAlpha"/>
<feOffset dy="4"/>
<feGaussianBlur stdDeviation="2"/>
<feComposite in2="hardAlpha" operator="arithmetic" k2="-1" k3="1"/>
<feColorMatrix type="matrix" values="0 0 0 0 0 0 0 0 0 0 0 0 0 0 0 0 0 0 0.25 0"/>
<feBlend mode="normal" in2="shape" result="effect1_innerShadow_47_31"/>
</filter>
<filter id="filter2_i_47_31" x="213" y="81" width="54" height="58" filterUnits="userSpaceOnUse" color-interpolation-filters="sRGB">
<feFlood flood-opacity="0" result="BackgroundImageFix"/>
<feBlend mode="normal" in="SourceGraphic" in2="BackgroundImageFix" result="shape"/>
<feColorMatrix in="SourceAlpha" type="matrix" values="0 0 0 0 0 0 0 0 0 0 0 0 0 0 0 0 0 0 127 0" result="hardAlpha"/>
<feOffset dy="4"/>
<feGaussianBlur stdDeviation="2"/>
<feComposite in2="hardAlpha" operator="arithmetic" k2="-1" k3="1"/>
<feColorMatrix type="matrix" values="0 0 0 0 0 0 0 0 0 0 0 0 0 0 0 0 0 0 0.25 0"/>
<feBlend mode="normal" in2="shape" result="effect1_innerShadow_47_31"/>
</filter>
<filter id="filter3_i_47_31" x="118" y="81" width="54" height="58" filterUnits="userSpaceOnUse" color-interpolation-filters="sRGB">
<feFlood flood-opacity="0" result="BackgroundImageFix"/>
<feBlend mode="normal" in="SourceGraphic" in2="BackgroundImageFix" result="shape"/>
<feColorMatrix in="SourceAlpha" type="matrix" values="0 0 0 0 0 0 0 0 0 0 0 0 0 0 0 0 0 0 127 0" result="hardAlpha"/>
<feOffset dy="4"/>
<feGaussianBlur stdDeviation="2"/>
<feComposite in2="hardAlpha" operator="arithmetic" k2="-1" k3="1"/>
<feColorMatrix type="matrix" values="0 0 0 0 0 0 0 0 0 0 0 0 0 0 0 0 0 0 0.25 0"/>
<feBlend mode="normal" in2="shape" result="effect1_innerShadow_47_31"/>
</filter>
<linearGradient id="paint0_linear_47_31" x1="49.5" y1="70" x2="49.5" y2="200" gradientUnits="userSpaceOnUse">
<stop stop-color="#422040"/>
<stop offset="1" stop-color="#A851A3"/>
</linearGradient>
<linearGradient id="paint1_linear_47_31" x1="239.5" y1="70" x2="239.5" y2="200" gradientUnits="userSpaceOnUse">
<stop stop-color="#422040"/>
<stop offset="1" stop-color="#A851A3"/>
</linearGradient>
<linearGradient id="paint2_linear_47_31" x1="334.5" y1="70" x2="334.5" y2="200" gradientUnits="userSpaceOnUse">
<stop stop-color="#422040"/>
<stop offset="1" stop-color="#A851A3"/>
</linearGradient>
<linearGradient id="paint3_linear_47_31" x1="144.5" y1="70" x2="144.5" y2="200" gradientUnits="userSpaceOnUse">
<stop stop-color="#422040"/>
<stop offset="1" stop-color="#A851A3"/>
</linearGradient>
</defs>
</svg>
