<svg width="118" height="36" viewBox="0 0 118 36" fill="none" xmlns="http://www.w3.org/2000/svg">
<path d="M26.5577 11.8102V23.0369C26.5584 23.4801 26.4101 23.9144 26.1299 24.2896C25.8497 24.6648 25.4491 24.9655 24.9743 25.1569C24.4111 25.3809 23.7844 25.4672 23.1657 25.4059C22.5471 25.3446 21.9613 25.1382 21.4752 24.8102L13.4002 19.1969C13.0983 18.9766 12.8563 18.7043 12.6904 18.3983C12.5245 18.0923 12.4386 17.7599 12.4386 17.4236C12.4386 17.0872 12.5245 16.7548 12.6904 16.4488C12.8563 16.1429 13.0983 15.8705 13.4002 15.6502L21.4752 10.0369C21.9613 9.70889 22.5471 9.50248 23.1657 9.44118C23.7844 9.37989 24.4111 9.46619 24.9743 9.69023C25.4491 9.88162 25.8497 10.1823 26.1299 10.5575C26.4101 10.9327 26.5584 11.367 26.5577 11.8102Z" fill="#FF9500"/>
<path d="M91.4423 24.1898V12.9632C91.4416 12.52 91.5899 12.0856 91.8701 11.7104C92.1503 11.3353 92.5509 11.0346 93.0257 10.8432C93.5889 10.6191 94.2156 10.5328 94.8343 10.5941C95.4529 10.6554 96.0387 10.8618 96.5248 11.1898L104.6 16.8032C104.902 17.0235 105.144 17.2958 105.31 17.6018C105.476 17.9077 105.561 18.2402 105.561 18.5765C105.561 18.9129 105.476 19.2453 105.31 19.5512C105.144 19.8572 104.902 20.1296 104.6 20.3498L96.5248 25.9632C96.0387 26.2912 95.4529 26.4976 94.8343 26.5589C94.2156 26.6202 93.5889 26.5339 93.0257 26.3098C92.5509 26.1185 92.1503 25.8178 91.8701 25.4426C91.5899 25.0674 91.4416 24.6331 91.4423 24.1898Z" fill="#FF9500"/>
</svg>
