<svg width="430" height="137" viewBox="0 0 430 137" fill="none" xmlns="http://www.w3.org/2000/svg">
<path d="M0 76.1481C0 72.2278 0 70.2676 0.762954 68.7702C1.43407 67.4531 2.50493 66.3822 3.82207 65.7111C5.31945 64.9481 7.27963 64.9481 11.2 64.9481H418.8C422.72 64.9481 424.681 64.9481 426.178 65.7111C427.495 66.3822 428.566 67.4531 429.237 68.7702C430 70.2676 430 72.2278 430 76.1481V125.8C430 129.72 430 131.681 429.237 133.178C428.566 134.495 427.495 135.566 426.178 136.237C424.681 137 422.72 137 418.8 137H11.2C7.27963 137 5.31945 137 3.82207 136.237C2.50493 135.566 1.43407 134.495 0.762954 133.178C0 131.681 0 129.72 0 125.8V76.1481Z" fill="url(#paint0_linear_47_3)" fill-opacity="0.9"/>
<g filter="url(#filter0_i_47_3)">
<ellipse cx="49.5" cy="101.481" rx="30.5" ry="31.4593" fill="#432141"/>
</g>
<g filter="url(#filter1_i_47_3)">
<ellipse cx="132.5" cy="101.481" rx="31.5" ry="31.4593" fill="#432141"/>
</g>
<g filter="url(#filter2_i_47_3)">
<ellipse cx="297.5" cy="101.481" rx="31.5" ry="31.4593" fill="#432141"/>
</g>
<g filter="url(#filter3_i_47_3)">
<ellipse cx="380.5" cy="101.481" rx="30.5" ry="31.4593" fill="#432141"/>
</g>
<g filter="url(#filter4_i_47_3)">
<ellipse cx="215" cy="101.481" rx="31" ry="31.4593" fill="#432141"/>
</g>
<path d="M50.5 101.989C50.016 101.989 49.6105 101.831 49.2837 101.514C48.9568 101.197 48.7928 100.806 48.7917 100.34V87.1472C48.7917 86.68 48.9557 86.2886 49.2837 85.9731C49.6117 85.6575 50.0171 85.4992 50.5 85.4981C50.9829 85.497 51.3889 85.6553 51.718 85.9731C52.0472 86.2908 52.2106 86.6822 52.2083 87.1472V100.34C52.2083 100.807 52.0443 101.199 51.7163 101.516C51.3883 101.832 50.9829 101.99 50.5 101.989ZM50.5 116.831C48.3646 116.831 46.3647 116.439 44.5003 115.656C42.636 114.874 41.0131 113.815 39.6316 112.482C38.2501 111.148 37.1539 109.582 36.343 107.782C35.5322 105.982 35.1261 104.051 35.125 101.989C35.125 100.312 35.4097 98.6836 35.9792 97.1026C36.5486 95.5217 37.3743 94.0722 38.4562 92.754C38.7694 92.3693 39.1681 92.184 39.6521 92.1983C40.1361 92.2126 40.5632 92.3978 40.9333 92.754C41.2465 93.0564 41.3889 93.4274 41.3604 93.8672C41.3319 94.3069 41.1753 94.7192 40.8906 95.104C40.1219 96.0934 39.5382 97.1791 39.1396 98.3609C38.741 99.5427 38.5417 100.752 38.5417 101.989C38.5417 105.205 39.7022 107.933 42.0233 110.173C44.3443 112.414 47.1699 113.533 50.5 113.532C53.8301 113.531 56.6563 112.412 58.9785 110.173C61.3007 107.935 62.4606 105.207 62.4583 101.989C62.4583 100.725 62.2664 99.4944 61.8826 98.2982C61.4988 97.1021 60.8935 96.0099 60.0667 95.0215C59.7819 94.6642 59.6253 94.2728 59.5969 93.8474C59.5684 93.4219 59.7108 93.0575 60.024 92.754C60.3656 92.4242 60.7785 92.2527 61.2625 92.2395C61.7465 92.2263 62.1451 92.3978 62.4583 92.754C63.5687 94.0733 64.4161 95.5162 65.0003 97.0829C65.5846 98.6495 65.8761 100.285 65.875 101.989C65.875 104.05 65.4696 105.981 64.6587 107.782C63.8478 109.583 62.7516 111.149 61.3701 112.482C59.9887 113.814 58.3657 114.873 56.5014 115.656C54.637 116.44 52.6366 116.832 50.5 116.831Z" fill="#FF9500"/>
<path d="M133 86.4136C124.26 86.4136 117.167 93.612 117.167 102.481C117.167 111.351 124.26 118.549 133 118.549C141.74 118.549 148.833 111.351 148.833 102.481C148.833 93.612 141.74 86.4136 133 86.4136ZM140.917 104.088H125.083V100.875H140.917V104.088Z" fill="#FF9500"/>
<path d="M387.666 107.909H374.334C373.808 107.909 373.292 107.759 372.847 107.475C372.401 107.19 372.044 106.784 371.817 106.302C371.551 105.73 371.448 105.094 371.521 104.466C371.594 103.839 371.839 103.244 372.228 102.751L378.894 94.5562C379.156 94.2499 379.479 94.0042 379.843 93.8359C380.206 93.6675 380.601 93.5804 381 93.5804C381.399 93.5804 381.794 93.6675 382.158 93.8359C382.521 94.0042 382.844 94.2499 383.106 94.5562L389.772 102.751C390.161 103.244 390.406 103.839 390.479 104.466C390.552 105.094 390.449 105.73 390.183 106.302C389.956 106.784 389.599 107.19 389.153 107.475C388.708 107.759 388.192 107.909 387.666 107.909Z" fill="#FF9500"/>
<path d="M291.334 95.0543H304.666C305.192 95.0535 305.708 95.204 306.153 95.4884C306.599 95.7728 306.956 96.1794 307.183 96.6611C307.449 97.2327 307.552 97.8687 307.479 98.4965C307.406 99.1243 307.161 99.7188 306.772 100.212L300.106 108.407C299.844 108.713 299.521 108.959 299.157 109.127C298.794 109.295 298.399 109.383 298 109.383C297.601 109.383 297.206 109.295 296.842 109.127C296.479 108.959 296.156 108.713 295.894 108.407L289.228 100.212C288.839 99.7188 288.594 99.1243 288.521 98.4965C288.448 97.8687 288.551 97.2327 288.817 96.6611C289.044 96.1794 289.401 95.7728 289.847 95.4884C290.292 95.204 290.808 95.0535 291.334 95.0543ZM304.333 98.2679H291.825L298 106.013L304.333 98.2679Z" fill="#FF9500"/>
<path d="M222.149 84.625L232.25 94.5063V108.494L222.149 118.375H207.851L197.75 108.494V94.5063L207.851 84.625H222.149ZM220.75 109V94H216.917V109H220.75ZM213.083 109V94H209.25V109H213.083Z" fill="#E8851B"/>
<rect x="15" y="-3.05176e-05" width="129" height="38.563" rx="8" fill="#684065"/>
<path d="M29.125 9.60463H30.9659L34.7841 24.8092H34.946L43.7841 9.60463H45.625L42.7273 27.0592H41.2273L43.5795 12.9711H43.4432L35.2017 27.0592H33.7528L30.2159 12.9711H30.0795L27.7273 27.0592H26.2273L29.125 9.60463ZM52.3111 27.3319C51.0895 27.3319 50.081 27.0478 49.2855 26.4796C48.4901 25.9058 47.9332 25.1132 47.6151 24.1018C47.2969 23.0847 47.2486 21.9143 47.4702 20.5904C47.6918 19.2722 48.1293 18.1018 48.7827 17.0791C49.4361 16.0507 50.2429 15.2467 51.2031 14.6671C52.1634 14.0819 53.206 13.7893 54.331 13.7893C55.0412 13.7893 55.706 13.92 56.3253 14.1813C56.9446 14.437 57.4702 14.8319 57.902 15.366C58.3395 15.8944 58.6435 16.562 58.8139 17.3688C58.9844 18.17 58.9787 19.1188 58.7969 20.2154L58.6776 20.9654H48.4503L48.6634 19.6274H57.348C57.4901 18.7864 57.4503 18.0308 57.2287 17.3603C57.0071 16.6899 56.6293 16.1586 56.0952 15.7666C55.5668 15.3688 54.9105 15.17 54.1264 15.17C53.3253 15.17 52.5668 15.3944 51.8509 15.8433C51.1406 16.2921 50.5384 16.8774 50.044 17.5989C49.5554 18.3149 49.2401 19.0791 49.098 19.8916L48.9276 20.8972C48.7457 22.0052 48.7685 22.9342 48.9957 23.6842C49.223 24.4285 49.6349 24.991 50.2315 25.3717C50.8281 25.7524 51.5923 25.9427 52.5241 25.9427C53.1491 25.9427 53.7145 25.8461 54.2202 25.6529C54.7259 25.4597 55.1662 25.2012 55.5412 24.8774C55.9162 24.5478 56.2173 24.187 56.4446 23.795L57.7997 24.2637C57.5099 24.8149 57.1009 25.3234 56.5724 25.7893C56.0497 26.2552 55.4276 26.6302 54.706 26.9143C53.9901 27.1927 53.1918 27.3319 52.3111 27.3319ZM68.3359 13.9683L68.1229 15.2893H61.8672L62.0888 13.9683H68.3359ZM64.5518 10.8319H66.0774L63.9467 23.6416C63.8558 24.187 63.8786 24.616 64.0149 24.9285C64.1513 25.2353 64.3615 25.4541 64.6456 25.5847C64.9297 25.7097 65.2422 25.7722 65.5831 25.7722C65.782 25.7722 65.9524 25.7609 66.0945 25.7382C66.2422 25.7097 66.3729 25.6813 66.4865 25.6529L66.5973 27.0251C66.4325 27.0819 66.2365 27.133 66.0092 27.1785C65.782 27.2296 65.5092 27.2552 65.1911 27.2552C64.6342 27.2552 64.12 27.133 63.6484 26.8887C63.1768 26.6444 62.8189 26.2808 62.5746 25.7978C62.3303 25.3149 62.2649 24.7154 62.3786 23.9995L64.5518 10.8319ZM72.7528 18.8774L71.3977 27.0592H69.8807L72.7784 9.60463H74.2955L73.2386 16.0222H73.375C73.7841 15.3404 74.3466 14.8007 75.0625 14.4029C75.7784 13.9995 76.6335 13.7978 77.6278 13.7978C78.5085 13.7978 79.2528 13.9796 79.8608 14.3433C80.4744 14.7069 80.9091 15.2438 81.1648 15.9541C81.4261 16.6643 81.4716 17.5393 81.3011 18.5791L79.8778 27.0592H78.3523L79.75 18.6728C79.9261 17.5933 79.767 16.7438 79.2727 16.1245C78.7841 15.4995 78.0341 15.187 77.0227 15.187C76.3295 15.187 75.6818 15.3347 75.0795 15.6302C74.483 15.9257 73.9773 16.3518 73.5625 16.9086C73.1534 17.4597 72.8835 18.116 72.7528 18.8774ZM89.0206 27.3319C87.8729 27.3319 86.907 27.0421 86.1229 26.4626C85.3388 25.8774 84.7848 25.0677 84.4609 24.0336C84.1371 22.9995 84.0831 21.8063 84.299 20.4541C84.5149 19.1359 84.9439 17.9768 85.5859 16.9768C86.2337 15.9711 87.0291 15.1899 87.9723 14.633C88.9155 14.0705 89.9411 13.7893 91.049 13.7893C92.2024 13.7893 93.1683 14.0819 93.9467 14.6671C94.7308 15.2524 95.2848 16.062 95.6087 17.0961C95.9382 18.1302 95.995 19.3262 95.7791 20.6842C95.5632 21.9967 95.1314 23.1529 94.4837 24.1529C93.8359 25.1472 93.0405 25.9257 92.0973 26.4882C91.1598 27.0507 90.1342 27.3319 89.0206 27.3319ZM89.0376 25.9427C89.9695 25.9427 90.799 25.6955 91.5263 25.2012C92.2592 24.7012 92.8643 24.0364 93.3416 23.2069C93.8189 22.3717 94.1399 21.4541 94.3047 20.4541C94.4581 19.4995 94.4411 18.6217 94.2536 17.8205C94.0661 17.0194 93.7053 16.3774 93.1712 15.8944C92.6371 15.4114 91.9268 15.17 91.0405 15.17C90.1143 15.17 89.2848 15.4228 88.5518 15.9285C87.8189 16.4285 87.2138 17.0989 86.7365 17.9399C86.2592 18.7751 85.9411 19.6899 85.782 20.6842C85.6229 21.6444 85.6342 22.5222 85.8161 23.3177C86.0036 24.1132 86.3643 24.7495 86.8984 25.2268C87.4382 25.7041 88.1513 25.9427 89.0376 25.9427ZM108.553 16.8404L107.095 17.2154C107.021 16.8234 106.885 16.4711 106.686 16.1586C106.493 15.8404 106.212 15.5904 105.842 15.4086C105.479 15.2211 105.001 15.1274 104.411 15.1274C103.524 15.1274 102.76 15.3433 102.118 15.7751C101.476 16.2012 101.101 16.7467 100.993 17.4114C100.902 17.9683 101.018 18.42 101.342 18.7666C101.672 19.1132 102.223 19.3859 102.996 19.5847L104.905 20.0705C105.962 20.3433 106.714 20.7694 107.163 21.3489C107.618 21.9285 107.774 22.6614 107.632 23.5478C107.507 24.2864 107.192 24.9399 106.686 25.508C106.186 26.0762 105.544 26.5222 104.76 26.8461C103.982 27.17 103.112 27.3319 102.152 27.3319C100.862 27.3319 99.848 27.0421 99.1094 26.4626C98.3764 25.883 97.9844 25.0478 97.9332 23.9569L99.4588 23.616C99.5043 24.3887 99.7685 24.9739 100.251 25.3717C100.74 25.7694 101.428 25.9683 102.314 25.9683C103.325 25.9683 104.175 25.7382 104.862 25.2779C105.55 24.8177 105.945 24.2495 106.047 23.5734C106.143 23.0393 106.044 22.5961 105.749 22.2438C105.459 21.8916 104.964 21.6302 104.266 21.4597L102.229 20.9484C101.132 20.67 100.357 20.2353 99.902 19.6444C99.4531 19.0478 99.3026 18.312 99.4503 17.437C99.5696 16.7154 99.8707 16.0819 100.354 15.5364C100.837 14.991 101.447 14.5649 102.186 14.258C102.925 13.9455 103.732 13.7893 104.607 13.7893C105.811 13.7893 106.729 14.062 107.359 14.6075C107.99 15.1472 108.388 15.8916 108.553 16.8404ZM115.045 27.3319C113.971 27.3319 113.076 27.0478 112.36 26.4796C111.644 25.9114 111.144 25.1188 110.86 24.1018C110.576 23.0847 110.545 21.9001 110.766 20.5478C110.994 19.2012 111.417 18.0222 112.036 17.0109C112.661 15.9938 113.425 15.2041 114.329 14.6416C115.238 14.0734 116.229 13.7893 117.303 13.7893C118.104 13.7893 118.744 13.9313 119.221 14.2154C119.704 14.4938 120.07 14.8404 120.32 15.2552C120.57 15.67 120.749 16.0734 120.857 16.4654H120.994L122.136 9.60463H123.661L120.763 27.0592H119.289L119.698 24.6302H119.511C119.266 25.0279 118.945 25.437 118.548 25.8575C118.156 26.2722 117.673 26.6217 117.099 26.9058C116.525 27.1899 115.84 27.3319 115.045 27.3319ZM115.377 25.9427C116.224 25.9427 116.988 25.7126 117.67 25.2524C118.357 24.7864 118.931 24.1472 119.391 23.3347C119.857 22.5166 120.175 21.5791 120.346 20.5222C120.522 19.4768 120.519 18.5535 120.337 17.7524C120.156 16.9455 119.803 16.3149 119.281 15.8603C118.758 15.4001 118.067 15.17 117.21 15.17C116.34 15.17 115.567 15.4086 114.891 15.8859C114.215 16.3575 113.656 16.9967 113.212 17.8035C112.775 18.6103 112.471 19.5166 112.3 20.5222C112.136 21.5393 112.136 22.4569 112.3 23.2751C112.465 24.0933 112.8 24.7438 113.306 25.2268C113.817 25.7041 114.508 25.9427 115.377 25.9427ZM126.457 27.187C126.116 27.187 125.829 27.0677 125.596 26.8291C125.369 26.5904 125.255 26.3007 125.255 25.9597C125.255 25.6188 125.38 25.3319 125.63 25.0989C125.88 24.866 126.173 24.7495 126.508 24.7495C126.843 24.7495 127.13 24.8688 127.369 25.1075C127.607 25.3461 127.721 25.6302 127.71 25.9597C127.704 26.187 127.641 26.3944 127.522 26.5819C127.408 26.7637 127.258 26.9114 127.07 27.0251C126.888 27.133 126.684 27.187 126.457 27.187Z" fill="black" fill-opacity="0.8"/>
<defs>
<filter id="filter0_i_47_3" x="19" y="70.0222" width="61" height="66.9185" filterUnits="userSpaceOnUse" color-interpolation-filters="sRGB">
<feFlood flood-opacity="0" result="BackgroundImageFix"/>
<feBlend mode="normal" in="SourceGraphic" in2="BackgroundImageFix" result="shape"/>
<feColorMatrix in="SourceAlpha" type="matrix" values="0 0 0 0 0 0 0 0 0 0 0 0 0 0 0 0 0 0 127 0" result="hardAlpha"/>
<feOffset dy="4"/>
<feGaussianBlur stdDeviation="2"/>
<feComposite in2="hardAlpha" operator="arithmetic" k2="-1" k3="1"/>
<feColorMatrix type="matrix" values="0 0 0 0 0 0 0 0 0 0 0 0 0 0 0 0 0 0 0.25 0"/>
<feBlend mode="normal" in2="shape" result="effect1_innerShadow_47_3"/>
</filter>
<filter id="filter1_i_47_3" x="101" y="70.0222" width="63" height="66.9185" filterUnits="userSpaceOnUse" color-interpolation-filters="sRGB">
<feFlood flood-opacity="0" result="BackgroundImageFix"/>
<feBlend mode="normal" in="SourceGraphic" in2="BackgroundImageFix" result="shape"/>
<feColorMatrix in="SourceAlpha" type="matrix" values="0 0 0 0 0 0 0 0 0 0 0 0 0 0 0 0 0 0 127 0" result="hardAlpha"/>
<feOffset dy="4"/>
<feGaussianBlur stdDeviation="2"/>
<feComposite in2="hardAlpha" operator="arithmetic" k2="-1" k3="1"/>
<feColorMatrix type="matrix" values="0 0 0 0 0 0 0 0 0 0 0 0 0 0 0 0 0 0 0.25 0"/>
<feBlend mode="normal" in2="shape" result="effect1_innerShadow_47_3"/>
</filter>
<filter id="filter2_i_47_3" x="266" y="70.0222" width="63" height="66.9185" filterUnits="userSpaceOnUse" color-interpolation-filters="sRGB">
<feFlood flood-opacity="0" result="BackgroundImageFix"/>
<feBlend mode="normal" in="SourceGraphic" in2="BackgroundImageFix" result="shape"/>
<feColorMatrix in="SourceAlpha" type="matrix" values="0 0 0 0 0 0 0 0 0 0 0 0 0 0 0 0 0 0 127 0" result="hardAlpha"/>
<feOffset dy="4"/>
<feGaussianBlur stdDeviation="2"/>
<feComposite in2="hardAlpha" operator="arithmetic" k2="-1" k3="1"/>
<feColorMatrix type="matrix" values="0 0 0 0 0 0 0 0 0 0 0 0 0 0 0 0 0 0 0.25 0"/>
<feBlend mode="normal" in2="shape" result="effect1_innerShadow_47_3"/>
</filter>
<filter id="filter3_i_47_3" x="350" y="70.0222" width="61" height="66.9185" filterUnits="userSpaceOnUse" color-interpolation-filters="sRGB">
<feFlood flood-opacity="0" result="BackgroundImageFix"/>
<feBlend mode="normal" in="SourceGraphic" in2="BackgroundImageFix" result="shape"/>
<feColorMatrix in="SourceAlpha" type="matrix" values="0 0 0 0 0 0 0 0 0 0 0 0 0 0 0 0 0 0 127 0" result="hardAlpha"/>
<feOffset dy="4"/>
<feGaussianBlur stdDeviation="2"/>
<feComposite in2="hardAlpha" operator="arithmetic" k2="-1" k3="1"/>
<feColorMatrix type="matrix" values="0 0 0 0 0 0 0 0 0 0 0 0 0 0 0 0 0 0 0.25 0"/>
<feBlend mode="normal" in2="shape" result="effect1_innerShadow_47_3"/>
</filter>
<filter id="filter4_i_47_3" x="184" y="70.0222" width="62" height="66.9185" filterUnits="userSpaceOnUse" color-interpolation-filters="sRGB">
<feFlood flood-opacity="0" result="BackgroundImageFix"/>
<feBlend mode="normal" in="SourceGraphic" in2="BackgroundImageFix" result="shape"/>
<feColorMatrix in="SourceAlpha" type="matrix" values="0 0 0 0 0 0 0 0 0 0 0 0 0 0 0 0 0 0 127 0" result="hardAlpha"/>
<feOffset dy="4"/>
<feGaussianBlur stdDeviation="2"/>
<feComposite in2="hardAlpha" operator="arithmetic" k2="-1" k3="1"/>
<feColorMatrix type="matrix" values="0 0 0 0 0 0 0 0 0 0 0 0 0 0 0 0 0 0 0.25 0"/>
<feBlend mode="normal" in2="shape" result="effect1_innerShadow_47_3"/>
</filter>
<linearGradient id="paint0_linear_47_3" x1="0" y1="100.974" x2="430" y2="100.974" gradientUnits="userSpaceOnUse">
<stop stop-color="#432141"/>
<stop offset="0.25" stop-color="#5D2E5A"/>
<stop offset="0.5" stop-color="#763A72"/>
<stop offset="1" stop-color="#A953A4"/>
</linearGradient>
</defs>
</svg>
