<svg width="391" height="69" viewBox="0 0 391 69" fill="none" xmlns="http://www.w3.org/2000/svg">
<rect x="-6.10352e-05" width="305" height="69" rx="31" fill="#D9D9D9"/>
<ellipse cx="356" cy="34.5" rx="35" ry="34.5" fill="url(#paint0_linear_47_42)" fill-opacity="0.9"/>
<circle cx="35.9999" cy="34" r="27" fill="url(#paint1_linear_47_42)" fill-opacity="0.91"/>
<path d="M20.6666 34L32.1666 21M20.6666 34L32.1666 47M20.6666 34H40.7916M51.3333 34H46.5416" stroke="black" stroke-width="1.5" stroke-linecap="round" stroke-linejoin="round"/>
<path d="M107.67 46H105.443L117.773 22.7273H120.045L124.648 46H122.42L118.545 25.4886H118.398L107.67 46ZM110.761 37.0795H122.307L121.989 38.9886H110.443L110.761 37.0795ZM128.426 46L131.335 28.5455H133.369L130.46 46H128.426ZM133.085 25.5114C132.661 25.5114 132.301 25.3674 132.006 25.0795C131.718 24.7917 131.578 24.4432 131.585 24.0341C131.6 23.6477 131.756 23.3144 132.051 23.0341C132.354 22.7462 132.71 22.6023 133.119 22.6023C133.543 22.6023 133.903 22.75 134.199 23.0455C134.494 23.3333 134.634 23.6818 134.619 24.0909C134.612 24.4773 134.456 24.8106 134.153 25.0909C133.85 25.3712 133.494 25.5114 133.085 25.5114ZM135.81 46L138.719 28.5455H140.685L140.23 31.2273H140.378C140.863 30.3485 141.586 29.6402 142.548 29.1023C143.518 28.5568 144.552 28.2841 145.651 28.2841C145.817 28.2841 146.003 28.2879 146.207 28.2955C146.412 28.2955 146.582 28.303 146.719 28.3182L146.366 30.375C146.276 30.3598 146.116 30.3371 145.889 30.3068C145.669 30.2765 145.423 30.2614 145.151 30.2614C144.241 30.2614 143.401 30.4545 142.628 30.8409C141.863 31.2197 141.219 31.7462 140.696 32.4205C140.181 33.0947 139.847 33.8636 139.696 34.7273L137.832 46H135.81ZM146.156 52.5455L150.179 28.5455H152.145L151.599 31.875H151.838C152.156 31.3523 152.569 30.8144 153.077 30.2614C153.592 29.7083 154.232 29.2462 154.997 28.875C155.77 28.4962 156.694 28.3068 157.77 28.3068C159.209 28.3068 160.402 28.6818 161.349 29.4318C162.304 30.1818 162.971 31.2348 163.349 32.5909C163.736 33.947 163.777 35.5227 163.474 37.3182C163.179 39.1212 162.615 40.7008 161.781 42.0568C160.948 43.4129 159.929 44.4697 158.724 45.2273C157.527 45.9848 156.217 46.3636 154.793 46.3636C153.74 46.3636 152.887 46.1742 152.236 45.7955C151.592 45.4167 151.099 44.9508 150.758 44.3977C150.418 43.8371 150.171 43.2917 150.02 42.7614H149.838L148.202 52.5455H146.156ZM150.724 37.2841C150.497 38.6932 150.497 39.9432 150.724 41.0341C150.952 42.1174 151.41 42.9697 152.099 43.5909C152.789 44.2045 153.698 44.5114 154.827 44.5114C155.986 44.5114 157.02 44.1932 157.929 43.5568C158.838 42.9129 159.596 42.0455 160.202 40.9545C160.808 39.8636 161.224 38.6402 161.452 37.2841C161.664 35.9432 161.656 34.7348 161.429 33.6591C161.202 32.5833 160.747 31.7311 160.065 31.1023C159.383 30.4659 158.455 30.1477 157.281 30.1477C156.145 30.1477 155.122 30.4545 154.213 31.0682C153.311 31.6742 152.561 32.5152 151.963 33.5909C151.365 34.6591 150.952 35.8902 150.724 37.2841ZM172.352 22.7273L168.489 46H166.466L170.329 22.7273H172.352ZM178.67 46.3977C177.617 46.3977 176.689 46.1932 175.886 45.7841C175.083 45.3674 174.485 44.7689 174.091 43.9886C173.704 43.2008 173.598 42.2462 173.773 41.125C173.924 40.2614 174.212 39.5341 174.636 38.9432C175.068 38.3523 175.614 37.8674 176.273 37.4886C176.932 37.1023 177.689 36.7992 178.545 36.5795C179.401 36.3598 180.333 36.1932 181.341 36.0795C182.326 35.9583 183.167 35.8523 183.864 35.7614C184.561 35.6705 185.102 35.5265 185.489 35.3295C185.875 35.1326 186.106 34.8144 186.182 34.375L186.25 33.9659C186.447 32.7765 186.265 31.8409 185.704 31.1591C185.144 30.4697 184.204 30.125 182.886 30.125C181.629 30.125 180.538 30.4053 179.614 30.9659C178.697 31.5189 178.015 32.1667 177.568 32.9091L175.773 32.2159C176.318 31.2614 176.989 30.5 177.784 29.9318C178.579 29.3561 179.432 28.9432 180.341 28.6932C181.25 28.4356 182.148 28.3068 183.034 28.3068C183.701 28.3068 184.379 28.3939 185.068 28.5682C185.758 28.7424 186.375 29.0455 186.92 29.4773C187.473 29.9015 187.879 30.4962 188.136 31.2614C188.401 32.0189 188.439 32.9811 188.25 34.1477L186.273 46H184.25L184.716 43.2386H184.591C184.273 43.7538 183.833 44.2538 183.273 44.7386C182.72 45.2235 182.057 45.6212 181.284 45.9318C180.511 46.2424 179.64 46.3977 178.67 46.3977ZM179.182 44.5455C180.258 44.5455 181.231 44.3068 182.102 43.8295C182.981 43.3523 183.701 42.7197 184.261 41.9318C184.829 41.1364 185.193 40.2614 185.352 39.3068L185.773 36.7841C185.606 36.928 185.333 37.0568 184.954 37.1705C184.583 37.2841 184.163 37.3864 183.693 37.4773C183.231 37.5606 182.765 37.6326 182.295 37.6932C181.833 37.7538 181.424 37.8068 181.068 37.8523C180.061 37.9735 179.182 38.1629 178.432 38.4205C177.689 38.678 177.095 39.0341 176.648 39.4886C176.201 39.9356 175.92 40.5114 175.807 41.2159C175.633 42.2765 175.864 43.0985 176.5 43.6818C177.144 44.2576 178.038 44.5455 179.182 44.5455ZM195.483 35.0909L193.676 46H191.653L194.562 28.5455H196.528L196.074 31.2841H196.256C196.801 30.3902 197.555 29.6742 198.517 29.1364C199.487 28.5909 200.612 28.3182 201.892 28.3182C203.059 28.3182 204.043 28.5644 204.847 29.0568C205.657 29.5417 206.233 30.2576 206.574 31.2045C206.922 32.1515 206.983 33.3144 206.756 34.6932L204.858 46H202.835L204.699 34.8182C204.934 33.3939 204.725 32.2652 204.074 31.4318C203.43 30.5909 202.434 30.1705 201.085 30.1705C200.169 30.1705 199.316 30.3674 198.528 30.7614C197.748 31.1553 197.089 31.7235 196.551 32.4659C196.013 33.2008 195.657 34.0758 195.483 35.0909ZM217.196 46.3636C215.567 46.3636 214.222 45.9848 213.162 45.2273C212.101 44.4621 211.359 43.4053 210.935 42.0568C210.51 40.7008 210.446 39.1402 210.741 37.375C211.037 35.6174 211.62 34.0568 212.491 32.6932C213.363 31.322 214.438 30.25 215.719 29.4773C216.999 28.697 218.389 28.3068 219.889 28.3068C220.836 28.3068 221.722 28.4811 222.548 28.8295C223.374 29.1705 224.075 29.697 224.651 30.4091C225.234 31.1136 225.639 32.0038 225.866 33.0795C226.094 34.1477 226.086 35.4129 225.844 36.875L225.685 37.875H212.048L212.332 36.0909H223.912C224.101 34.9697 224.048 33.9621 223.753 33.0682C223.457 32.1742 222.954 31.4659 222.241 30.9432C221.537 30.4129 220.662 30.1477 219.616 30.1477C218.548 30.1477 217.537 30.447 216.582 31.0455C215.635 31.6439 214.832 32.4242 214.173 33.3864C213.522 34.3409 213.101 35.3598 212.912 36.4432L212.685 37.7841C212.442 39.2614 212.472 40.5 212.776 41.5C213.079 42.4924 213.628 43.2424 214.423 43.75C215.219 44.2576 216.238 44.5114 217.48 44.5114C218.313 44.5114 219.067 44.3826 219.741 44.125C220.416 43.8674 221.003 43.5227 221.503 43.0909C222.003 42.6515 222.404 42.1705 222.707 41.6477L224.514 42.2727C224.128 43.0076 223.582 43.6856 222.878 44.3068C222.181 44.928 221.351 45.428 220.389 45.8068C219.435 46.178 218.37 46.3636 217.196 46.3636ZM242.778 32.375L240.835 32.875C240.737 32.3523 240.555 31.8826 240.29 31.4659C240.032 31.0417 239.657 30.7083 239.165 30.4659C238.68 30.2159 238.043 30.0909 237.256 30.0909C236.074 30.0909 235.055 30.3788 234.199 30.9545C233.343 31.5227 232.843 32.25 232.699 33.1364C232.578 33.8788 232.733 34.4811 233.165 34.9432C233.604 35.4053 234.339 35.7689 235.369 36.0341L237.915 36.6818C239.324 37.0455 240.328 37.6136 240.926 38.3864C241.532 39.1591 241.74 40.1364 241.551 41.3182C241.384 42.303 240.964 43.1742 240.29 43.9318C239.623 44.6894 238.767 45.2841 237.722 45.7159C236.684 46.1477 235.525 46.3636 234.244 46.3636C232.525 46.3636 231.172 45.9773 230.187 45.2045C229.21 44.4318 228.687 43.3182 228.619 41.8636L230.653 41.4091C230.714 42.4394 231.066 43.2197 231.71 43.75C232.362 44.2803 233.278 44.5455 234.46 44.5455C235.809 44.5455 236.941 44.2386 237.858 43.625C238.775 43.0114 239.301 42.2538 239.437 41.3523C239.566 40.6402 239.434 40.0492 239.04 39.5795C238.653 39.1098 237.994 38.7614 237.062 38.5341L234.347 37.8523C232.884 37.4811 231.85 36.9015 231.244 36.1136C230.646 35.3182 230.445 34.3371 230.642 33.1705C230.801 32.2083 231.203 31.3636 231.847 30.6364C232.49 29.9091 233.305 29.3409 234.29 28.9318C235.275 28.5152 236.35 28.3068 237.517 28.3068C239.123 28.3068 240.347 28.6705 241.187 29.3977C242.028 30.1174 242.559 31.1098 242.778 32.375Z" fill="black" fill-opacity="0.8"/>
<path d="M356 19.4453C355.316 19.4453 354.66 19.2009 354.177 18.7657C353.693 18.3306 353.422 17.7404 353.422 17.125V12.0625C353.422 11.4471 353.693 10.8569 354.177 10.4218C354.66 9.98665 355.316 9.74219 356 9.74219C356.684 9.74219 357.339 9.98665 357.823 10.4218C358.306 10.8569 358.578 11.4471 358.578 12.0625V17.125C358.578 17.7404 358.306 18.3306 357.823 18.7657C357.339 19.2009 356.684 19.4453 356 19.4453ZM356 58.2578C355.316 58.2578 354.66 58.0134 354.177 57.5782C353.693 57.1431 353.422 56.5529 353.422 55.9375V50.875C353.422 50.2596 353.693 49.6694 354.177 49.2343C354.66 48.7991 355.316 48.5547 356 48.5547C356.684 48.5547 357.339 48.7991 357.823 49.2343C358.306 49.6694 358.578 50.2596 358.578 50.875V55.9375C358.578 56.5529 358.306 57.1431 357.823 57.5782C357.339 58.0134 356.684 58.2578 356 58.2578ZM369.259 24.3876C368.749 24.3875 368.25 24.2514 367.827 23.9965C367.403 23.7417 367.072 23.3794 366.877 22.9555C366.682 22.5317 366.631 22.0652 366.73 21.6152C366.829 21.1652 367.075 20.7518 367.435 20.4272L371.412 16.8476C371.898 16.4219 372.55 16.1855 373.228 16.1895C373.906 16.1935 374.555 16.4377 375.034 16.8691C375.514 17.3005 375.785 17.8844 375.789 18.4945C375.794 19.1046 375.531 19.6917 375.058 20.1288L371.081 23.7084C370.842 23.924 370.558 24.095 370.245 24.2116C369.932 24.3281 369.597 24.3879 369.259 24.3876ZM338.764 51.8327C338.254 51.8326 337.756 51.6964 337.332 51.4414C336.908 51.1864 336.577 50.8239 336.382 50.3999C336.187 49.9759 336.136 49.5093 336.236 49.0592C336.335 48.6091 336.581 48.1957 336.942 47.8713L340.919 44.2916C341.157 44.0715 341.442 43.8962 341.756 43.7758C342.07 43.6554 342.408 43.5924 342.749 43.5903C343.09 43.5883 343.429 43.6473 343.745 43.764C344.061 43.8806 344.348 44.0526 344.589 44.2699C344.83 44.4872 345.021 44.7454 345.151 45.0297C345.281 45.314 345.346 45.6186 345.344 45.9259C345.342 46.2332 345.272 46.537 345.138 46.8197C345.004 47.1024 344.809 47.3584 344.565 47.5728L340.587 51.1524C340.348 51.3683 340.064 51.5395 339.751 51.6563C339.438 51.773 339.103 51.833 338.764 51.8327ZM380.375 36.3203H374.75C374.066 36.3203 373.41 36.0758 372.927 35.6407C372.443 35.2056 372.172 34.6154 372.172 34C372.172 33.3846 372.443 32.7944 372.927 32.3593C373.41 31.9241 374.066 31.6797 374.75 31.6797H380.375C381.059 31.6797 381.714 31.9241 382.198 32.3593C382.681 32.7944 382.953 33.3846 382.953 34C382.953 34.6154 382.681 35.2056 382.198 35.6407C381.714 36.0758 381.059 36.3203 380.375 36.3203ZM337.25 36.3203H331.625C330.941 36.3203 330.285 36.0758 329.802 35.6407C329.318 35.2056 329.047 34.6154 329.047 34C329.047 33.3846 329.318 32.7944 329.802 32.3593C330.285 31.9241 330.941 31.6797 331.625 31.6797H337.25C337.934 31.6797 338.589 31.9241 339.073 32.3593C339.556 32.7944 339.828 33.3846 339.828 34C339.828 34.6154 339.556 35.2056 339.073 35.6407C338.589 36.0758 337.934 36.3203 337.25 36.3203ZM373.236 51.8327C372.897 51.833 372.562 51.773 372.249 51.6563C371.936 51.5395 371.652 51.3683 371.412 51.1524L367.435 47.5728C366.962 47.1357 366.699 46.5486 366.704 45.9385C366.708 45.3285 366.98 44.7445 367.459 44.3131C367.938 43.8817 368.587 43.6376 369.265 43.6336C369.943 43.6295 370.595 43.866 371.081 44.2916L375.058 47.8713C375.419 48.1957 375.664 48.6091 375.764 49.0592C375.864 49.5093 375.813 49.9759 375.618 50.3999C375.423 50.8239 375.092 51.1864 374.668 51.4414C374.244 51.6964 373.746 51.8326 373.236 51.8327ZM342.741 24.3876C342.403 24.3881 342.068 24.3284 341.755 24.2118C341.442 24.0952 341.158 23.9241 340.919 23.7084L336.942 20.1288C336.469 19.6917 336.206 19.1046 336.211 18.4945C336.215 17.8844 336.486 17.3005 336.966 16.8691C337.445 16.4377 338.094 16.1935 338.772 16.1895C339.449 16.1855 340.102 16.4219 340.587 16.8476L344.565 20.4272C344.925 20.7518 345.17 21.1652 345.27 21.6152C345.369 22.0652 345.318 22.5317 345.123 22.9555C344.928 23.3794 344.597 23.7417 344.173 23.9965C343.749 24.2514 343.251 24.3875 342.741 24.3876ZM356 44.7578C353.636 44.7578 351.325 44.1269 349.359 42.9448C347.393 41.7627 345.861 40.0826 344.957 38.1168C344.052 36.1511 343.815 33.9881 344.276 31.9013C344.738 29.8144 345.876 27.8976 347.548 26.3931C349.219 24.8886 351.349 23.864 353.668 23.4489C355.987 23.0338 358.39 23.2468 360.574 24.0611C362.758 24.8753 364.625 26.2542 365.939 28.0233C367.252 29.7924 367.953 31.8723 367.953 34C367.949 36.8521 366.689 39.5865 364.448 41.6032C362.207 43.62 359.169 44.7545 356 44.7578Z" fill="black"/>
<defs>
<linearGradient id="paint0_linear_47_42" x1="356" y1="0" x2="356" y2="69" gradientUnits="userSpaceOnUse">
<stop stop-color="#422040"/>
<stop offset="1" stop-color="#A851A3"/>
</linearGradient>
<linearGradient id="paint1_linear_47_42" x1="35.9999" y1="7" x2="35.9999" y2="61" gradientUnits="userSpaceOnUse">
<stop stop-color="#472345"/>
<stop offset="1" stop-color="#AD55A8"/>
</linearGradient>
</defs>
</svg>
